<?xml version="1.0" encoding="UTF-8" standalone="no"?>
<!-- Created with Inkscape (http://www.inkscape.org/) -->

<svg
   xmlns:dc="http://purl.org/dc/elements/1.1/"
   xmlns:cc="http://creativecommons.org/ns#"
   xmlns:rdf="http://www.w3.org/1999/02/22-rdf-syntax-ns#"
   xmlns:svg="http://www.w3.org/2000/svg"
   xmlns="http://www.w3.org/2000/svg"
   xmlns:xlink="http://www.w3.org/1999/xlink"
   xmlns:sodipodi="http://sodipodi.sourceforge.net/DTD/sodipodi-0.dtd"
   xmlns:inkscape="http://www.inkscape.org/namespaces/inkscape"
   width="236.80322mm"
   height="42.82143mm"
   viewBox="0 0 236.80322 42.82143"
   version="1.1"
   id="svg8"
   inkscape:version="0.92.3 (2405546, 2018-03-11)"
   sodipodi:docname="ratio4.svg">
  <sodipodi:namedview
     id="base"
     pagecolor="#ffffff"
     bordercolor="#666666"
     borderopacity="1.0"
     inkscape:pageopacity="0.0"
     inkscape:pageshadow="2"
     inkscape:zoom="0.35"
     inkscape:cx="217.97532"
     inkscape:cy="-59.077616"
     inkscape:document-units="mm"
     inkscape:current-layer="layer1"
     showgrid="false"
     inkscape:window-width="1213"
     inkscape:window-height="745"
     inkscape:window-x="67"
     inkscape:window-y="27"
     inkscape:window-maximized="1"
     fit-margin-top="0"
     fit-margin-left="0"
     fit-margin-right="0"
     fit-margin-bottom="0" />
  <defs
     id="defs2">
    <linearGradient
       id="linearGradient2305"
       inkscape:collect="always">
      <stop
         id="stop2301"
         offset="0"
         style="stop-color:#808080;stop-opacity:1;" />
      <stop
         id="stop2303"
         offset="1"
         style="stop-color:#808080;stop-opacity:0;" />
    </linearGradient>
    <linearGradient
       gradientTransform="matrix(1.6,0,0,1,-0.22674384,0)"
       gradientUnits="userSpaceOnUse"
       y2="111.79167"
       x2="107.21125"
       y1="111.79167"
       x1="-0.62209356"
       id="linearGradient2307"
       xlink:href="#linearGradient2305"
       inkscape:collect="always" />
  </defs>
  <metadata
     id="metadata5">
    <rdf:RDF>
      <cc:Work
         rdf:about="">
        <dc:format>image/svg+xml</dc:format>
        <dc:type
           rdf:resource="http://purl.org/dc/dcmitype/StillImage" />
        <dc:title></dc:title>
      </cc:Work>
    </rdf:RDF>
  </metadata>
  <g
     transform="translate(1,-90.380951)"
     id="layer1"
     inkscape:groupmode="layer"
     inkscape:label="レイヤー 1">
    <rect
       style="opacity:1;fill:url(#linearGradient2307);fill-opacity:1;stroke:#808080;stroke-width:1.99999988;stroke-miterlimit:4;stroke-dasharray:none;stroke-dashoffset:0;stroke-opacity:1"
       id="rect817"
       width="169.33334"
       height="24.946428"
       x="0.37790638"
       y="99.318459" />
    <rect
       y="91.380951"
       x="0"
       height="40.82143"
       width="209.39882"
       id="rect10"
       style="opacity:1;fill:none;fill-opacity:1;stroke:#000000;stroke-width:2;stroke-miterlimit:4;stroke-dasharray:none;stroke-dashoffset:0;stroke-opacity:1" />
    <g
       transform="matrix(2.158956,0,0,2.158956,49.536106,-15.484838)"
       title="50"
       style="fill:#000000;stroke-width:0.46318683"
       id="equation_02">
      <defs
         id="defs888">
        <path
           inkscape:connector-curvature="0"
           id="equation_02_00"
           d="m 4.582814,-3.188045 c 0,-0.797011 -0.049813,-1.594022 -0.398505,-2.331258 -0.458282,-0.956413 -1.275218,-1.115815 -1.693649,-1.115815 -0.597758,0 -1.325031,0.259028 -1.733499,1.185554 -0.318805,0.687422 -0.368618,1.464508 -0.368618,2.261519 0,0.747198 0.039851,1.643836 0.448319,2.400996 0.428393,0.806974 1.155666,1.006227 1.643835,1.006227 0.537983,0 1.295144,-0.209215 1.7335,-1.155666 0.318804,-0.687422 0.368617,-1.464508 0.368617,-2.251557 z M 2.480697,0 C 2.092154,0 1.504359,-0.249066 1.325031,-1.205479 1.215442,-1.803238 1.215442,-2.719801 1.215442,-3.307597 c 0,-0.637608 0,-1.295143 0.079701,-1.833125 0.18929,-1.185554 0.936488,-1.275218 1.185554,-1.275218 0.328768,0 0.986302,0.179327 1.175592,1.165629 0.099626,0.557908 0.099626,1.315068 0.099626,1.942714 0,0.747198 0,1.424658 -0.109589,2.062267 C 3.496887,-0.298879 2.929016,0 2.480697,0 Z" />
        <path
           inkscape:connector-curvature="0"
           id="equation_02_01"
           d="m 4.473225,-2.002491 c 0,-1.185554 -0.816936,-2.181818 -1.892901,-2.181818 -0.478207,0 -0.9066,0.159402 -1.265256,0.508095 v -1.942715 c 0.199253,0.059776 0.52802,0.129514 0.846825,0.129514 1.225405,0 1.922789,-0.9066 1.922789,-1.036114 0,-0.059776 -0.029887,-0.109589 -0.099626,-0.109589 -0.00996,0 -0.029888,0 -0.079701,0.029888 -0.199253,0.089663 -0.687422,0.288916 -1.354919,0.288916 -0.398506,0 -0.856787,-0.069738 -1.325031,-0.278954 -0.079701,-0.029888 -0.099627,-0.029888 -0.119552,-0.029888 -0.099626,0 -0.099626,0.079701 -0.099626,0.239104 v 2.948941 c 0,0.179328 0,0.259029 0.139477,0.259029 0.069738,0 0.089663,-0.029888 0.129514,-0.089664 0.109589,-0.159402 0.478207,-0.697385 1.285181,-0.697385 0.518057,0 0.767123,0.458282 0.846824,0.637609 0.159402,0.368618 0.179327,0.757161 0.179327,1.255293 0,0.348692 0,0.946451 -0.239103,1.364882 -0.239103,0.388543 -0.607721,0.647571 -1.066002,0.647571 -0.727273,0 -1.295144,-0.52802 -1.464509,-1.115816 0.029888,0.00996 0.059776,0.019926 0.169365,0.019926 0.328767,0 0.498132,-0.249066 0.498132,-0.48817 0,-0.239104 -0.169365,-0.488169 -0.498132,-0.488169 -0.139477,0 -0.488169,0.069738 -0.488169,0.52802 0,0.856787 0.687422,1.823163 1.803238,1.823163 1.155666,0 2.171855,-0.956413 2.171855,-2.221669 z" />
      </defs>
      <g
         style="stroke-width:0.46318683"
         id="equation_02_g">
        <use
           style="stroke-width:0.46318683"
           height="100%"
           width="100%"
           id="use890"
           y="62.764633"
           xlink:href="#equation_02_01"
           x="76.712326" />
        <use
           style="stroke-width:0.46318683"
           height="100%"
           width="100%"
           id="use892"
           y="62.764633"
           xlink:href="#equation_02_00"
           x="81.693665" />
      </g>
    </g>
    <g
       title="40"
       style="fill:#000000;stroke-width:0.47949383"
       id="equation_00"
       transform="matrix(2.0855325,0,0,2.0855325,13.487744,-11.901332)">
      <defs
         id="defs1050">
        <path
           id="equation_00_00"
           d="m 4.582814,-3.188045 c 0,-0.797011 -0.049813,-1.594022 -0.398505,-2.331258 -0.458282,-0.956413 -1.275218,-1.115815 -1.693649,-1.115815 -0.597758,0 -1.325031,0.259028 -1.733499,1.185554 -0.318805,0.687422 -0.368618,1.464508 -0.368618,2.261519 0,0.747198 0.039851,1.643836 0.448319,2.400996 0.428393,0.806974 1.155666,1.006227 1.643835,1.006227 0.537983,0 1.295144,-0.209215 1.7335,-1.155666 0.318804,-0.687422 0.368617,-1.464508 0.368617,-2.251557 z M 2.480697,0 C 2.092154,0 1.504359,-0.249066 1.325031,-1.205479 1.215442,-1.803238 1.215442,-2.719801 1.215442,-3.307597 c 0,-0.637608 0,-1.295143 0.079701,-1.833125 0.18929,-1.185554 0.936488,-1.275218 1.185554,-1.275218 0.328768,0 0.986302,0.179327 1.175592,1.165629 0.099626,0.557908 0.099626,1.315068 0.099626,1.942714 0,0.747198 0,1.424658 -0.109589,2.062267 C 3.496887,-0.298879 2.929016,0 2.480697,0 Z"
           inkscape:connector-curvature="0" />
        <path
           id="equation_00_01"
           d="m 2.929016,-1.643836 v 0.86675 c 0,0.358655 -0.019925,0.468244 -0.75716,0.468244 H 1.96264 V 0 c 0.408468,-0.029888 0.926526,-0.029888 1.344957,-0.029888 0.418431,0 0.94645,0 1.354919,0.029888 V -0.308842 H 4.4533 c -0.737235,0 -0.757161,-0.109589 -0.757161,-0.468244 v -0.86675 H 4.692403 V -1.952677 H 3.696139 v -4.533002 c 0,-0.199253 0,-0.259028 -0.159402,-0.259028 -0.089664,0 -0.119551,0 -0.199253,0.119551 l -3.05853,4.672479 v 0.308841 z M 2.988792,-1.952677 H 0.557908 l 2.430884,-3.716065 z"
           inkscape:connector-curvature="0" />
      </defs>
      <g
         id="equation_00_g"
         style="stroke-width:0.47949383">
        <use
           id="use1052"
           y="62.764633"
           xlink:href="#equation_00_01"
           x="76.712326"
           width="100%"
           height="100%"
           style="stroke-width:0.47949383" />
        <use
           id="use1054"
           y="62.764633"
           xlink:href="#equation_00_00"
           x="81.693665"
           width="100%"
           height="100%"
           style="stroke-width:0.47949383" />
      </g>
    </g>
  </g>
</svg>
