<?xml version="1.0" encoding="UTF-8" standalone="no"?>
<!-- Created with Inkscape (http://www.inkscape.org/) -->

<svg
   xmlns:dc="http://purl.org/dc/elements/1.1/"
   xmlns:cc="http://creativecommons.org/ns#"
   xmlns:rdf="http://www.w3.org/1999/02/22-rdf-syntax-ns#"
   xmlns:svg="http://www.w3.org/2000/svg"
   xmlns="http://www.w3.org/2000/svg"
   xmlns:xlink="http://www.w3.org/1999/xlink"
   xmlns:sodipodi="http://sodipodi.sourceforge.net/DTD/sodipodi-0.dtd"
   xmlns:inkscape="http://www.inkscape.org/namespaces/inkscape"
   width="211.39882mm"
   height="42.82143mm"
   viewBox="0 0 211.39882 42.82143"
   version="1.1"
   id="svg8"
   inkscape:version="0.92.3 (2405546, 2018-03-11)"
   sodipodi:docname="ratio5.svg">
  <sodipodi:namedview
     id="base"
     pagecolor="#ffffff"
     bordercolor="#666666"
     borderopacity="1.0"
     inkscape:pageopacity="0.0"
     inkscape:pageshadow="2"
     inkscape:zoom="0.35"
     inkscape:cx="217.97532"
     inkscape:cy="-59.07764"
     inkscape:document-units="mm"
     inkscape:current-layer="layer1"
     showgrid="false"
     inkscape:window-width="1213"
     inkscape:window-height="745"
     inkscape:window-x="67"
     inkscape:window-y="27"
     inkscape:window-maximized="1"
     fit-margin-top="0"
     fit-margin-left="0"
     fit-margin-right="0"
     fit-margin-bottom="0" />
  <defs
     id="defs2">
    <linearGradient
       id="linearGradient2305"
       inkscape:collect="always">
      <stop
         id="stop2301"
         offset="0"
         style="stop-color:#808080;stop-opacity:1;" />
      <stop
         id="stop2303"
         offset="1"
         style="stop-color:#808080;stop-opacity:0;" />
    </linearGradient>
    <linearGradient
       gradientTransform="matrix(1.6,0,0,1,-0.22674384,0)"
       gradientUnits="userSpaceOnUse"
       y2="111.79167"
       x2="107.21125"
       y1="111.79167"
       x1="-0.62209356"
       id="linearGradient2307"
       xlink:href="#linearGradient2305"
       inkscape:collect="always" />
  </defs>
  <metadata
     id="metadata5">
    <rdf:RDF>
      <cc:Work
         rdf:about="">
        <dc:format>image/svg+xml</dc:format>
        <dc:type
           rdf:resource="http://purl.org/dc/dcmitype/StillImage" />
        <dc:title></dc:title>
      </cc:Work>
    </rdf:RDF>
  </metadata>
  <g
     transform="translate(1,-90.380951)"
     id="layer1"
     inkscape:groupmode="layer"
     inkscape:label="レイヤー 1">
    <rect
       style="opacity:1;fill:url(#linearGradient2307);fill-opacity:1;stroke:#808080;stroke-width:1.99999988;stroke-miterlimit:4;stroke-dasharray:none;stroke-dashoffset:0;stroke-opacity:1"
       id="rect817"
       width="169.33334"
       height="24.946428"
       x="0.37790638"
       y="99.318459" />
    <rect
       y="91.380951"
       x="0"
       height="40.82143"
       width="209.39882"
       id="rect10"
       style="opacity:1;fill:none;fill-opacity:1;stroke:#000000;stroke-width:2;stroke-miterlimit:4;stroke-dasharray:none;stroke-dashoffset:0;stroke-opacity:1" />
    <g
       title="0.8"
       style="fill:#000000;stroke-width:0.4973278"
       id="equation_03"
       transform="matrix(2.0107461,0,0,2.0107461,19.905451,-7.5957831)">
      <defs
         id="defs1204">
        <path
           id="equation_03_00"
           d="m 1.912827,-0.52802 c 0,-0.288916 -0.239103,-0.52802 -0.52802,-0.52802 -0.288917,0 -0.52802,0.239104 -0.52802,0.52802 0,0.288916 0.239103,0.52802 0.52802,0.52802 0.288917,0 0.52802,-0.239103 0.52802,-0.52802 z"
           inkscape:connector-curvature="0" />
        <path
           id="equation_03_01"
           d="m 4.582814,-3.188045 c 0,-0.797011 -0.049813,-1.594022 -0.398505,-2.331258 -0.458282,-0.956413 -1.275218,-1.115815 -1.693649,-1.115815 -0.597758,0 -1.325031,0.259028 -1.733499,1.185554 -0.318805,0.687422 -0.368618,1.464508 -0.368618,2.261519 0,0.747198 0.039851,1.643836 0.448319,2.400996 0.428393,0.806974 1.155666,1.006227 1.643835,1.006227 0.537983,0 1.295144,-0.209215 1.7335,-1.155666 0.318804,-0.687422 0.368617,-1.464508 0.368617,-2.251557 z M 2.480697,0 C 2.092154,0 1.504359,-0.249066 1.325031,-1.205479 1.215442,-1.803238 1.215442,-2.719801 1.215442,-3.307597 c 0,-0.637608 0,-1.295143 0.079701,-1.833125 0.18929,-1.185554 0.936488,-1.275218 1.185554,-1.275218 0.328768,0 0.986302,0.179327 1.175592,1.165629 0.099626,0.557908 0.099626,1.315068 0.099626,1.942714 0,0.747198 0,1.424658 -0.109589,2.062267 C 3.496887,-0.298879 2.929016,0 2.480697,0 Z"
           inkscape:connector-curvature="0" />
        <path
           id="equation_03_02"
           d="M 1.62391,-4.552927 C 1.165629,-4.851806 1.125778,-5.190535 1.125778,-5.3599 c 0,-0.607721 0.647572,-1.026152 1.354919,-1.026152 0.727273,0 1.364882,0.518057 1.364882,1.235367 0,0.567871 -0.388543,1.046077 -0.986301,1.39477 z m 1.454546,0.946451 c 0.71731,-0.368617 1.205479,-0.886675 1.205479,-1.544209 0,-0.916563 -0.886675,-1.484433 -1.793275,-1.484433 -0.996264,0 -1.803238,0.737235 -1.803238,1.663761 0,0.179327 0.019925,0.627646 0.438356,1.09589 0.109589,0.119552 0.478207,0.368618 0.727273,0.537983 -0.577833,0.288916 -1.43462,0.846824 -1.43462,1.833125 0,1.05604 1.016189,1.723537 2.062266,1.723537 1.125779,0 2.07223,-0.826899 2.07223,-1.892902 0,-0.358655 -0.10959,-0.806973 -0.48817,-1.225404 C 3.875467,-3.108344 3.716065,-3.20797 3.078456,-3.606476 Z m -0.996264,0.418431 1.225405,0.777086 c 0.278953,0.18929 0.747198,0.488169 0.747198,1.095891 0,0.737235 -0.747198,1.255292 -1.564135,1.255292 -0.856787,0 -1.574097,-0.617684 -1.574097,-1.444583 0,-0.577833 0.318804,-1.215442 1.165629,-1.683686 z"
           inkscape:connector-curvature="0" />
      </defs>
      <g
         id="equation_03_g"
         style="stroke-width:0.4973278">
        <use
           id="use1206"
           y="62.764633"
           xlink:href="#equation_03_01"
           x="76.712326"
           width="100%"
           height="100%"
           style="stroke-width:0.4973278" />
        <use
           id="use1208"
           y="62.764633"
           xlink:href="#equation_03_00"
           x="81.693665"
           width="100%"
           height="100%"
           style="stroke-width:0.4973278" />
        <use
           id="use1210"
           y="62.764633"
           xlink:href="#equation_03_02"
           x="84.461075"
           width="100%"
           height="100%"
           style="stroke-width:0.4973278" />
      </g>
    </g>
  </g>
</svg>
